<svg style="height: auto; fill: inherit" version="1.1" xmlns="http://www.w3.org/2000/svg" xmlns:xlink="http://www.w3.org/1999/xlink" x="0px" y="0px" viewBox="0 0 1000 1000" enable-background="new 0 0 1000 1000" xml:space="preserve">
<metadata> Svg Vector Icons : http://www.onlinewebfonts.com/icon </metadata>
<g><path d="M703.9,537.3c-80.2-41.6-170.6-63.7-261.5-63.7c-50.7,0-101.2,6.7-149.9,20c-15.7,4.3-24.9,31.1-20.6,46.7s20.5,24.9,36.2,20.6c43.6-11.9,88.9-17.9,134.3-17.9c82.7,0,161.5,19.2,234.4,57.1c4.3,2.3,8.9,3.3,13.5,3.3c10.7,0,20.9-16.4,26.2-26.5C723.9,562.6,718.3,544.8,703.9,537.3z M806.3,10H193.8C92.3,10,10,92.3,10,193.8v612.5C10,907.7,92.3,990,193.8,990h612.5C907.7,990,990,907.7,990,806.3V193.8C990,92.3,907.7,10,806.3,10z M500,867.5C297,867.5,132.5,703,132.5,500S297,132.5,500,132.5c203,0,367.5,164.5,367.5,367.5S703,867.5,500,867.5z M442.3,326.4c-56.5,0-112.7,6.9-167.3,20.4c-18.1,4.5-29,26.3-24.6,44.3c4.5,18,22.7,29,40.8,24.6c49.2-12.2,100.1-18.4,151.1-18.4c97.9,0,191.7,22,278.7,65.4c4.8,2.4,9.9,3.6,15,3.6c12.4,0,24.3-10.4,30.2-22.2c8.3-16.6,1.5-36.9-15.1-45.1C654.6,350.7,550.7,326.4,442.3,326.4z M442.3,611.2c-45.5,0-90.5,6.8-133.6,20.1c-13.4,4.1-20.8,32.4-16.7,45.7c4.1,13.4,18.3,20.8,31.6,16.7c38.3-11.9,78.3-17.9,118.7-17.9c67.5,0,134.3,17.2,193.2,49.6c3.9,2.1,8,3.1,12.2,3.1c8.9,0,17.6-4.7,22.1-13.1c6.7-12.2,2.3-41.7-9.9-48.4C593.6,630.5,518.3,611.2,442.3,611.2z"/></g>
</svg>